<svg width="500" height="415" viewBox="0 0 500 415" fill="none" xmlns="http://www.w3.org/2000/svg">
<rect width="500" height="50" rx="5" fill="#1A1A2E" fill-opacity="0.7"/>
<path d="M21.125 18.75H24.5V17.625H26.75V18.75H30.125V19.875H26.75V27.75H27.875V28.875H29V30H30.125V31.125H27.875V30H26.75V28.875H24.5V30H23.375V31.125H21.125V30H22.25V28.875H23.375V27.75H24.5V19.875H21.125V18.75ZM31.25 17.625H33.5V24.375H34.625V17.625H36.875V32.25H34.625V25.5H33.5V32.25H31.25V17.625ZM39.665 17.625H48.665V18.75H41.915V21H48.665V22.125H41.915V24.375H48.665V25.5H40.79V24.375H39.665V17.625ZM52.04 17.625H54.29V25.5H52.04V17.625ZM40.79 27.75H43.04V26.625H52.04V27.75H54.29V31.125H52.04V32.25H43.04V31.125H40.79V27.75ZM43.04 28.875V30H44.165V31.125H50.915V30H52.04V28.875H50.915V27.75H44.165V28.875H43.04Z" fill="white"/>
<path d="M469 33H467V31H469V33ZM467 31H465V29H467V31ZM471 31H469V29H471V31ZM465 29H463V27H465V29ZM473 27V29H471V27H473ZM465 23H463V21H465V23ZM473 23H471V21H473V23ZM467 21H465V19H467V21ZM471 21H469V19H471V21ZM469 19H467V17H469V19Z" fill="white"/>
<rect y="55" width="500" height="300" rx="5" fill="#1A1A2E" fill-opacity="0.7"/>
<rect y="365" width="500" height="50" rx="5" fill="#1A1A2E" fill-opacity="0.7"/>
<path d="M20.875 385.25H22.625V389.625H25.25V385.25H27V394H26.125V394.875H21.75V394H20.875V385.25ZM22.625 390.5V394H25.25V390.5H22.625ZM29.625 384.375H31.375V389.625H34V390.5H31.375V395.75H29.625V384.375ZM36.17 385.25H46.67V388.75H37.92V390.5H46.67V391.375H37.045V390.5H36.17V387.875H44.92V386.125H36.17V385.25ZM35.295 394H47.545V394.875H35.295V394ZM50.59 385.25H61.09V390.5H60.215V391.375H58.465V390.5H59.34V386.125H50.59V385.25ZM49.715 394H54.965V389.625H56.715V394H61.965V394.875H49.715V394ZM72.43 385.25H82.93V390.5H82.055V391.375H80.305V390.5H81.18V386.125H72.43V385.25ZM71.555 394H76.805V389.625H78.555V394H83.805V394.875H71.555V394ZM86.85 385.25H88.6V384.375H95.6V385.25H97.35V387.875H95.6V388.75H88.6V387.875H86.85V385.25ZM88.6 386.125V387H89.475V387.875H94.725V387H95.6V386.125H94.725V385.25H89.475V386.125H88.6ZM85.975 389.625H98.225V390.5H92.975V392.25H91.225V390.5H85.975V389.625ZM86.85 391.375H88.6V394.875H97.35V395.75H87.725V394.875H86.85V391.375ZM107.815 384.375H114.815V389.625H113.94V390.5H108.69V389.625H107.815V384.375ZM109.565 385.25V389.625H113.065V385.25H109.565ZM116.565 384.375H118.315V387H120.94V387.875H118.315V390.5H116.565V384.375ZM108.69 391.375H118.315V394H110.44V394.875H118.315V395.75H109.565V394.875H108.69V393.125H116.565V392.25H108.69V391.375ZM123.11 385.25H124.86V384.375H131.86V385.25H133.61V387.875H131.86V388.75H124.86V387.875H123.11V385.25ZM124.86 386.125V387H125.735V387.875H130.985V387H131.86V386.125H130.985V385.25H125.735V386.125H124.86ZM122.235 389.625H134.485V390.5H122.235V389.625ZM123.11 391.375H133.61V394H124.86V394.875H133.61V395.75H123.985V394.875H123.11V393.125H131.86V392.25H123.11V391.375ZM144.95 387.875H145.825V387H146.7V384.375H148.45V387H149.325V387.875H151.075V387H151.95V384.375H153.7V387H154.575V387.875H155.45V388.75H153.7V387.875H151.95V388.75H148.45V387.875H146.7V388.75H144.95V387.875ZM144.075 389.625H156.325V390.5H144.075V389.625ZM144.95 391.375H146.7V393.125H153.7V391.375H155.45V394.875H154.575V395.75H145.825V394.875H144.95V391.375ZM146.7 394V394.875H153.7V394H146.7ZM158.495 394H159.37V393.125H160.245V392.25H161.12V385.25H162.87V392.25H163.745V393.125H164.62V394H165.495V394.875H163.745V394H162.87V393.125H161.12V394H160.245V394.875H158.495V394ZM168.12 384.375H169.87V395.75H168.12V384.375ZM172.915 385.25H179.04V386.125H174.665V394H177.29V393.125H179.04V394H178.165V394.875H173.79V394H172.915V385.25ZM181.665 384.375H183.415V389.625H186.04V390.5H183.415V395.75H181.665V384.375ZM189.085 392.25H190.835V394H189.085V392.25Z" fill="white" fill-opacity="0.7"/>
<path d="M466 398H464V396H466V398ZM476 394H464V396H462V394H460V392H462V390H464V392H474V382H476V394ZM466 390H464V388H466V390Z" fill="white" fill-opacity="0.7"/>
</svg>
