<svg width="38" height="38" viewBox="0 0 38 38" fill="none" xmlns="http://www.w3.org/2000/svg">
<path d="M12.667 20.583L12.667 17.417L15.833 17.417L15.833 20.583L12.667 20.583ZM15.833 17.417L15.833 14.25L19 14.25L19 17.417L15.833 17.417ZM15.833 23.75L15.833 20.583L19 20.583L19 23.75L15.833 23.75ZM19 14.25L19 11.083L22.167 11.083L22.167 14.25L19 14.25ZM19 26.917L19 23.75L22.167 23.75L22.167 26.917L19 26.917ZM22.167 11.083L22.167 7.91699L25.333 7.91699L25.333 11.083L22.167 11.083ZM22.167 30.083L22.167 26.917L25.333 26.917L25.333 30.083L22.167 30.083Z" fill="white"/>
</svg>
